<?xml version="1.0" encoding="UTF-8"?>
<!DOCTYPE svg PUBLIC "-//W3C//DTD SVG 1.1//EN" "http://www.w3.org/Graphics/SVG/1.1/DTD/svg11.dtd">
<!-- Creator: CorelDRAW 2020 (64-Bit) -->
<svg xmlns="http://www.w3.org/2000/svg" xml:space="preserve" width="13.079mm" height="28.052mm" version="1.1" style="shape-rendering:geometricPrecision; text-rendering:geometricPrecision; image-rendering:optimizeQuality; fill-rule:evenodd; clip-rule:evenodd"
viewBox="0 0 1307.9 2805.2"
 xmlns:xlink="http://www.w3.org/1999/xlink"
 xmlns:xodm="http://www.corel.com/coreldraw/odm/2003">
 <defs>
  <style type="text/css">
   <![CDATA[
    .fil0 {fill:white}
   ]]>
  </style>
 </defs>
 <g id="Слой_x0020_1">
  <metadata id="CorelCorpID_0Corel-Layer"/>
  <path class="fil0" d="M289.59 534.42c-2.27,127.39 3.51,257.37 -0.35,384.45l-295.71 4.94c1.07,62.15 12.82,455.78 12.82,477.81l118.38 0 165.71 -0.62 -0.56 1403.41 96.95 3.64 118.38 0 135.28 0 118.37 0 99.54 -0.42 0.25 -1412.91 162.32 0.81 118.37 0 116.09 -0.39c12.29,-128.21 33.72,-352.68 46.04,-470.03l-441.68 -2.57c-11.95,-180.2 -31.48,-424.02 152.72,-424.78l135.28 0.01 118.38 -0.01 30.14 -0.6 2.35 -21.92 0 -118.37 0.01 -135.28 0 -118.37 0 -94.64c-125.62,-9.76 -309.48,-4.77 -438.37,-1.11 -357.37,10.15 -564.12,157.09 -570.71,526.95z"/>
 </g>
</svg>
