<?xml version="1.0" encoding="UTF-8"?>
<!DOCTYPE svg PUBLIC "-//W3C//DTD SVG 1.1//EN" "http://www.w3.org/Graphics/SVG/1.1/DTD/svg11.dtd">
<!-- Creator: CorelDRAW 2020 (64-Bit) -->
<svg xmlns="http://www.w3.org/2000/svg" xml:space="preserve" width="26.699mm" height="26.699mm" version="1.1" style="shape-rendering:geometricPrecision; text-rendering:geometricPrecision; image-rendering:optimizeQuality; fill-rule:evenodd; clip-rule:evenodd"
viewBox="0 0 2669.9 2669.9"
 xmlns:xlink="http://www.w3.org/1999/xlink"
 xmlns:xodm="http://www.corel.com/coreldraw/odm/2003">
 <defs>
  <style type="text/css">
   <![CDATA[
    .fil0 {fill:white}
   ]]>
  </style>
 </defs>
 <g id="Слой_x0020_1">
  <metadata id="CorelCorpID_0Corel-Layer"/>
  <g id="_2175582074208">
   <path class="fil0" d="M768.55 6.28l1127.24 0c424.24,0 771.35,347.11 771.35,771.35l0 1120.2c0,424.25 -347.11,771.36 -771.35,771.36l-1127.24 0c-424.25,0 -771.36,-347.11 -771.36,-771.36l0 -1120.2c0,-424.24 347.11,-771.35 771.36,-771.35zm0 234.66l1127.23 0c295.19,0 536.7,241.51 536.7,536.7l0 1120.19c0,295.19 -241.51,536.7 -536.7,536.7l-1127.23 0c-295.19,0 -536.7,-241.51 -536.7,-536.7l0 -1120.19c0,-295.19 241.51,-536.7 536.7,-536.7z"/>
   <path class="fil0" d="M1332.17 645.96c382.06,0 691.77,309.71 691.77,691.77 0,382.06 -309.71,691.78 -691.77,691.78 -382.06,0 -691.78,-309.72 -691.78,-691.78 0,-382.06 309.72,-691.77 691.78,-691.77zm0 250.97c243.44,0 440.8,197.35 440.8,440.8 0,243.45 -197.36,440.81 -440.8,440.81 -243.45,0 -440.81,-197.36 -440.81,-440.81 0,-243.45 197.36,-440.8 440.81,-440.8z"/>
   <circle class="fil0" cx="2044.45" cy="632.14" r="162.08"/>
  </g>
 </g>
</svg>
