<?xml version="1.0" encoding="UTF-8"?>
<!DOCTYPE svg PUBLIC "-//W3C//DTD SVG 1.1//EN" "http://www.w3.org/Graphics/SVG/1.1/DTD/svg11.dtd">
<!-- Creator: CorelDRAW 2020 (64-Bit) -->
<svg xmlns="http://www.w3.org/2000/svg" xml:space="preserve" width="21.354mm" height="26.247mm" version="1.1" style="shape-rendering:geometricPrecision; text-rendering:geometricPrecision; image-rendering:optimizeQuality; fill-rule:evenodd; clip-rule:evenodd"
viewBox="0 0 2135.4 2624.7"
 xmlns:xlink="http://www.w3.org/1999/xlink"
 xmlns:xodm="http://www.corel.com/coreldraw/odm/2003">
 <defs>
  <style type="text/css">
   <![CDATA[
    .fil0 {fill:white}
   ]]>
  </style>
 </defs>
 <g id="Слой_x0020_1">
  <metadata id="CorelCorpID_0Corel-Layer"/>
  <path class="fil0" d="M1057.74 1577.22c-276.18,0 -500.02,-223.85 -500.02,-500.01 0,-276.18 223.84,-500.01 500.02,-500.01 276.17,0 500,223.83 500,500.01 0,276.16 -223.83,500.01 -500,500.01zm-1060.46 -508.68l0 44.48c0,4.44 17.8,160.17 35.57,226.89 124.58,520.51 547.2,916.42 1032.11,1285.69 484.91,-369.25 907.53,-765.16 1032.1,-1285.69 17.8,-66.72 35.58,-218 35.58,-226.89 0.02,-13.33 0.02,-31.14 0.02,-44.48 0,-591.7 -489.35,-1067.69 -1067.69,-1067.69 -591.68,0 -1067.69,476.02 -1067.69,1067.69z"/>
 </g>
</svg>
