<?xml version="1.0" encoding="UTF-8"?>
<!DOCTYPE svg PUBLIC "-//W3C//DTD SVG 1.1//EN" "http://www.w3.org/Graphics/SVG/1.1/DTD/svg11.dtd">
<!-- Creator: CorelDRAW 2020 (64-Bit) -->
<svg xmlns="http://www.w3.org/2000/svg" xml:space="preserve" width="45.816mm" height="29.457mm" version="1.1" style="shape-rendering:geometricPrecision; text-rendering:geometricPrecision; image-rendering:optimizeQuality; fill-rule:evenodd; clip-rule:evenodd"
viewBox="0 0 4581.6 2945.7"
 xmlns:xlink="http://www.w3.org/1999/xlink"
 xmlns:xodm="http://www.corel.com/coreldraw/odm/2003">
 <defs>
  <style type="text/css">
   <![CDATA[
    .fil2 {fill:none}
    .fil1 {fill:#FEFEFE}
    .fil0 {fill:#FEFEFE;fill-rule:nonzero}
   ]]>
  </style>
    <clipPath id="id0">
     <path d="M2039.35 1094.35c155.83,-116.02 325.76,-232.75 506.45,-346.71 11.26,-7.09 22.5,-14.1 33.73,-21.11 47.61,-54.98 57.51,-136.68 18.7,-202.58l0 0c37.38,63.46 109.46,94.52 178.3,83.37 869.84,-509.79 1641.91,-743.9 1780.02,-524.9 89.04,141.17 -105.44,438.97 -478.53,784.22l-10.26 0c314.97,-309.13 472.16,-570.72 390.42,-700.32 -132.25,-209.71 -845.82,-3.91 -1669.88,461.54 -42.97,54.77 -50.7,132.75 -13.39,196.12l0 0c-37.76,-64.13 -110.98,-95.18 -180.47,-83.01 -48.78,29.38 -97.81,59.55 -147.01,90.58 -141.58,89.28 -276.53,180.27 -403.28,271.28l-4.8 -8.48zm825 907.65c-83.88,57.25 -170.66,114.25 -260.01,170.6 -993.9,626.8 -1925.65,935.06 -2081.13,688.51 -140.62,-222.95 304.28,-636.75 565.49,-859.11l55.43 0c-213.34,242.93 -308.25,442.52 -239.41,551.66 143.69,227.85 950.45,-18.27 1856.49,-551.66l51.57 0 51.57 0z"/>
    </clipPath>
 </defs>
 <g id="Слой_x0020_1">
  <metadata id="CorelCorpID_0Corel-Layer"/>
  <g id="_2377157409904">
   <path class="fil0" d="M420.73 1330.15c-69.06,0 -102.15,-18.69 -102.15,-67.58 0,-48.89 33.09,-66.14 102.15,-66.14l667.58 0 191.35 -250.19 -835.9 0c-292.07,0 -412.92,117.91 -412.92,299.07 0,165.35 113.66,276.07 361.12,276.07l523.7 0c70.5,0 102.15,20.13 102.15,69.02 0,50.32 -31.65,70.45 -102.15,70.45l-728 0 -191.35 247.31 896.33 0c293.5,0 412.92,-117.9 412.92,-314.89 0,-175.42 -126.61,-263.12 -361.13,-263.12l-523.7 0zm1527.94 -297.64c-34.53,-63.26 -86.32,-102.08 -162.57,-102.08 -74.82,0 -142.44,43.13 -168.34,132.28l-248.9 845.45 292.06 0 90.65 -335.02c28.77,-107.84 50.35,-188.36 64.74,-264.56 30.21,64.7 64.74,132.28 135.24,264.56l129.48 243c50.36,94.9 99.28,107.83 171.21,107.83 71.94,0 120.86,-12.93 171.21,-107.83l129.49 -241.56c66.18,-125.09 102.15,-198.42 133.8,-266 15.83,77.64 35.97,155.28 66.19,264.56l90.64 335.02 296.37 0 -243.14 -845.45c-25.9,-89.15 -92.08,-132.28 -166.89,-132.28 -77.7,0 -129.49,40.26 -164.02,102.08l-153.94 273.19c-84.89,148.1 -122.3,218.55 -153.95,286.13 -33.09,-67.58 -70.5,-139.47 -155.38,-287.57l-153.95 -271.75zm1794.1 628.34c-162.57,0 -281.99,-93.46 -281.99,-230.06 0,-138.03 120.86,-234.36 281.99,-234.36l483.42 0 191.35 -250.19 -674.77 0c-333.78,0 -579.81,189.8 -579.81,471.61 0,278.95 246.03,490.31 579.81,490.31l483.42 0 191.35 -247.31 -674.77 0z"/>
   <path class="fil1" d="M2039.35 1094.35c155.83,-116.02 325.76,-232.75 506.45,-346.71 11.26,-7.09 22.5,-14.1 33.73,-21.11 47.61,-54.98 57.51,-136.68 18.7,-202.58l0 0c37.38,63.46 109.46,94.52 178.3,83.37 869.84,-509.79 1641.91,-743.9 1780.02,-524.9 89.04,141.17 -105.44,438.97 -478.53,784.22l-10.26 0c314.97,-309.13 472.16,-570.72 390.42,-700.32 -132.25,-209.71 -845.82,-3.91 -1669.88,461.54 -42.97,54.77 -50.7,132.75 -13.39,196.12l0 0c-37.76,-64.13 -110.98,-95.18 -180.47,-83.01 -48.78,29.38 -97.81,59.55 -147.01,90.58 -141.58,89.28 -276.53,180.27 -403.28,271.28l-4.8 -8.48zm825 907.65c-83.88,57.25 -170.66,114.25 -260.01,170.6 -993.9,626.8 -1925.65,935.06 -2081.13,688.51 -140.62,-222.95 304.28,-636.75 565.49,-859.11l55.43 0c-213.34,242.93 -308.25,442.52 -239.41,551.66 143.69,227.85 950.45,-18.27 1856.49,-551.66l51.57 0 51.57 0z"/>
   <g style="clip-path:url(#id0)">
    <g>
     <rect class="fil2" x="-5677.88" y="-4692.22" width="762" height="635"/>
    </g>
   </g>
   <path class="fil2" d="M2039.35 1094.35c155.83,-116.02 325.76,-232.75 506.45,-346.71 11.26,-7.09 22.5,-14.1 33.73,-21.11 47.61,-54.98 57.51,-136.68 18.7,-202.58l0 0c37.38,63.46 109.46,94.52 178.3,83.37 869.84,-509.79 1641.91,-743.9 1780.02,-524.9 89.04,141.17 -105.44,438.97 -478.53,784.22l-10.26 0c314.97,-309.13 472.16,-570.72 390.42,-700.32 -132.25,-209.71 -845.82,-3.91 -1669.88,461.54 -42.97,54.77 -50.7,132.75 -13.39,196.12l0 0c-37.76,-64.13 -110.98,-95.18 -180.47,-83.01 -48.78,29.38 -97.81,59.55 -147.01,90.58 -141.58,89.28 -276.53,180.27 -403.28,271.28l-4.8 -8.48zm825 907.65c-83.88,57.25 -170.66,114.25 -260.01,170.6 -993.9,626.8 -1925.65,935.06 -2081.13,688.51 -140.62,-222.95 304.28,-636.75 565.49,-859.11l55.43 0c-213.34,242.93 -308.25,442.52 -239.41,551.66 143.69,227.85 950.45,-18.27 1856.49,-551.66l51.57 0 51.57 0z"/>
  </g>
 </g>
</svg>
