<?xml version="1.0" encoding="UTF-8"?>
<!DOCTYPE svg PUBLIC "-//W3C//DTD SVG 1.1//EN" "http://www.w3.org/Graphics/SVG/1.1/DTD/svg11.dtd">
<!-- Creator: CorelDRAW 2020 (64-Bit) -->
<svg xmlns="http://www.w3.org/2000/svg" xml:space="preserve" width="26.7mm" height="26.568mm" version="1.1" style="shape-rendering:geometricPrecision; text-rendering:geometricPrecision; image-rendering:optimizeQuality; fill-rule:evenodd; clip-rule:evenodd"
viewBox="0 0 2670 2656.8"
 xmlns:xlink="http://www.w3.org/1999/xlink"
 xmlns:xodm="http://www.corel.com/coreldraw/odm/2003">
 <defs>
  <style type="text/css">
   <![CDATA[
    .fil0 {fill:white;fill-rule:nonzero}
   ]]>
  </style>
 </defs>
 <g id="Слой_x0020_1">
  <metadata id="CorelCorpID_0Corel-Layer"/>
  <g id="_2175576347328">
   <g>
    <path class="fil0" d="M732.7 1092.81c89.75,161.9 193.2,317.28 327.5,458.97 134.73,142.56 302.28,272.3 519.16,383.13 16.09,7.82 31.3,7.82 44.99,2.39 20.64,-7.82 41.72,-24.99 62.37,-45.63 16.08,-16.09 36.07,-41.73 56.94,-69.76 83.44,-109.75 186.67,-246 332.49,-177.77 3.26,1.52 5.65,3.26 8.91,4.57l486.35 279.68c1.52,0.87 3.26,2.39 4.57,3.26 64.11,44.12 90.62,112.14 91.27,189.28 0,78.45 -28.9,166.69 -71.28,241.22 -56.07,98.45 -138.65,163.64 -233.83,206.67 -90.62,41.73 -191.46,64.11 -288.38,78.45 -152.12,22.39 -294.68,8.04 -440.5,-36.72 -142.56,-44.12 -286.21,-116.92 -443.11,-213.84l-11.52 -7.39c-71.93,-44.99 -149.73,-93.01 -226,-149.73 -279.04,-210.8 -563.5,-515.26 -748.88,-850.36 -155.38,-281.21 -240.13,-584.8 -193.84,-874.05 25.64,-158.64 93.66,-302.93 212.32,-398.12 103.44,-83.45 242.74,-129.09 423.11,-113 20.65,1.52 39.12,13.47 48.9,31.29l311.84 527.21c45.64,59.11 51.29,117.78 26.3,176.46 -20.64,48.03 -62.37,92.36 -119.31,133.65 -16.73,14.34 -36.72,28.9 -57.8,44.12 -69.76,50.63 -149.08,109.09 -121.92,177.76l-0.65 -1.74 0 0 0 0z"/>
   </g>
  </g>
 </g>
</svg>
