<?xml version="1.0" encoding="UTF-8"?>
<!DOCTYPE svg PUBLIC "-//W3C//DTD SVG 1.1//EN" "http://www.w3.org/Graphics/SVG/1.1/DTD/svg11.dtd">
<!-- Creator: CorelDRAW 2020 (64-Bit) -->
<svg xmlns="http://www.w3.org/2000/svg" xml:space="preserve" width="143.556mm" height="92.299mm" version="1.1" style="shape-rendering:geometricPrecision; text-rendering:geometricPrecision; image-rendering:optimizeQuality; fill-rule:evenodd; clip-rule:evenodd"
viewBox="0 0 14355.6 9229.9"
 xmlns:xlink="http://www.w3.org/1999/xlink"
 xmlns:xodm="http://www.corel.com/coreldraw/odm/2003">
 <defs>
  <style type="text/css">
   <![CDATA[
    .fil2 {fill:none}
    .fil1 {fill:#96989A}
    .fil0 {fill:url(#id1);fill-rule:nonzero}
   ]]>
  </style>
    <clipPath id="id0">
     <path d="M6399.5 3435.74c488.26,-363.53 1020.69,-729.27 1586.87,-1086.33 35.26,-22.24 70.48,-44.2 105.68,-66.17 149.17,-172.25 180.2,-428.24 58.6,-634.74l0 0c117.09,198.84 342.97,296.17 558.65,261.23 2725.46,-1597.31 5144.6,-2330.86 5577.34,-1644.67 278.97,442.35 -330.4,1375.44 -1499.4,2457.2l-32.14 0c986.89,-968.59 1479.4,-1788.23 1223.31,-2194.32 -414.38,-657.07 -2650.2,-12.25 -5232.23,1446.14 -134.64,171.63 -158.86,415.95 -41.94,614.52l0 0c-118.32,-200.95 -347.74,-298.22 -565.47,-260.09 -152.86,92.05 -306.48,186.59 -460.63,283.8 -443.6,279.75 -866.44,564.83 -1263.59,849.99l-15.05 -26.56zm2584.98 2843.92c-262.82,179.41 -534.75,358 -814.69,534.55 -3114.17,1963.93 -6033.64,2929.81 -6520.8,2157.31 -440.59,-698.57 953.41,-1995.14 1771.83,-2691.86l173.69 0c-668.44,761.17 -965.82,1386.55 -750.14,1728.53 450.24,713.91 2978.04,-57.25 5816.94,-1728.53l161.58 0 161.59 0z"/>
    </clipPath>
  <linearGradient id="id1" gradientUnits="userSpaceOnUse" x1="2709.6" y1="2971.66" x2="12911.69" y2="7426.23">
   <stop offset="0" style="stop-opacity:1; stop-color:#1F1F5F"/>
   <stop offset="0.258824" style="stop-opacity:1; stop-color:#413882"/>
   <stop offset="1" style="stop-opacity:1; stop-color:#0E0E3B"/>
  </linearGradient>
 </defs>
 <g id="Слой_x0020_1">
  <metadata id="CorelCorpID_0Corel-Layer"/>
  <g id="_2776858911280">
   <path class="fil0" d="M1327.91 4174.56c-216.39,0 -320.07,-58.57 -320.07,-211.75 0,-153.17 103.68,-207.23 320.07,-207.23l2091.69 0 599.57 -783.91 -2619.13 0c-915.13,0 -1293.8,369.43 -1293.8,937.08 0,518.09 356.13,864.99 1131.5,864.99l1640.92 0c220.88,0 320.06,63.08 320.06,216.26 0,157.68 -99.18,220.75 -320.06,220.75l-2281.05 0 -599.56 774.89 2808.48 0c919.62,0 1293.78,-369.43 1293.78,-986.63 0,-549.64 -396.7,-824.45 -1131.5,-824.45l-1640.9 0zm4787.47 -932.58c-108.19,-198.22 -270.47,-319.86 -509.4,-319.86 -234.41,0 -446.29,135.15 -527.43,414.48l-779.88 2649.04 915.11 0 284.01 -1049.7c90.16,-337.9 157.78,-590.18 202.86,-828.96 94.67,202.73 202.86,414.48 423.75,828.96l405.71 761.37c157.79,297.34 311.06,337.89 536.45,337.89 225.4,0 378.68,-40.55 536.45,-337.89l405.72 -756.87c207.37,-391.96 320.07,-621.72 419.24,-833.46 49.59,243.28 112.7,486.55 207.38,828.96l284 1049.7 928.64 0 -761.85 -2649.04c-81.14,-279.33 -288.51,-414.48 -522.92,-414.48 -243.44,0 -405.72,126.14 -513.91,319.86l-482.36 855.99c-265.97,464.03 -383.18,684.78 -482.35,896.53 -103.68,-211.75 -220.89,-437 -486.86,-901.04l-482.36 -851.48zm5621.45 1968.77c-509.4,0 -883.56,-292.84 -883.56,-720.83 0,-432.49 378.67,-734.34 883.56,-734.34l1514.68 0 599.57 -783.91 -2114.25 0c-1045.85,0 -1816.71,594.69 -1816.71,1477.7 0,874.01 770.86,1536.27 1816.71,1536.27l1514.68 0 599.57 -774.89 -2114.25 0z"/>
   <path class="fil1" d="M6399.5 3435.74c488.26,-363.53 1020.69,-729.27 1586.87,-1086.33 35.26,-22.24 70.48,-44.2 105.68,-66.17 149.17,-172.25 180.2,-428.24 58.6,-634.74l0 0c117.09,198.84 342.97,296.17 558.65,261.23 2725.46,-1597.31 5144.6,-2330.86 5577.34,-1644.67 278.97,442.35 -330.4,1375.44 -1499.4,2457.2l-32.14 0c986.89,-968.59 1479.4,-1788.23 1223.31,-2194.32 -414.38,-657.07 -2650.2,-12.25 -5232.23,1446.14 -134.64,171.63 -158.86,415.95 -41.94,614.52l0 0c-118.32,-200.95 -347.74,-298.22 -565.47,-260.09 -152.86,92.05 -306.48,186.59 -460.63,283.8 -443.6,279.75 -866.44,564.83 -1263.59,849.99l-15.05 -26.56zm2584.98 2843.92c-262.82,179.41 -534.75,358 -814.69,534.55 -3114.17,1963.93 -6033.64,2929.81 -6520.8,2157.31 -440.59,-698.57 953.41,-1995.14 1771.83,-2691.86l173.69 0c-668.44,761.17 -965.82,1386.55 -750.14,1728.53 450.24,713.91 2978.04,-57.25 5816.94,-1728.53l161.58 0 161.59 0z"/>
   <g style="clip-path:url(#id0)">
    <g>
     <rect class="fil2" x="-7986.82" y="-2332.51" width="423.33" height="582.08"/>
    </g>
   </g>
   <path class="fil2" d="M6399.5 3435.74c488.26,-363.53 1020.69,-729.27 1586.87,-1086.33 35.26,-22.24 70.48,-44.2 105.68,-66.17 149.17,-172.25 180.2,-428.24 58.6,-634.74l0 0c117.09,198.84 342.97,296.17 558.65,261.23 2725.46,-1597.31 5144.6,-2330.86 5577.34,-1644.67 278.97,442.35 -330.4,1375.44 -1499.4,2457.2l-32.14 0c986.89,-968.59 1479.4,-1788.23 1223.31,-2194.32 -414.38,-657.07 -2650.2,-12.25 -5232.23,1446.14 -134.64,171.63 -158.86,415.95 -41.94,614.52l0 0c-118.32,-200.95 -347.74,-298.22 -565.47,-260.09 -152.86,92.05 -306.48,186.59 -460.63,283.8 -443.6,279.75 -866.44,564.83 -1263.59,849.99l-15.05 -26.56zm2584.98 2843.92c-262.82,179.41 -534.75,358 -814.69,534.55 -3114.17,1963.93 -6033.64,2929.81 -6520.8,2157.31 -440.59,-698.57 953.41,-1995.14 1771.83,-2691.86l173.69 0c-668.44,761.17 -965.82,1386.55 -750.14,1728.53 450.24,713.91 2978.04,-57.25 5816.94,-1728.53l161.58 0 161.59 0z"/>
  </g>
 </g>
</svg>
